<svg xmlns="http://www.w3.org/2000/svg" viewBox="0 0 642.34 135.71"><defs><style>.cls-1{fill:#93a3a2;}.cls-2{fill:#06191c;}</style></defs><g id="Layer_2" data-name="Layer 2"><g id="Logos"><g id="Layer_2-2" data-name="Layer 2"><g id="Layer_1-2" data-name="Layer 1-2"><path class="cls-1" d="M298.45,127.28l1.67-2a11.33,11.33,0,0,0,8.17,3.38c3.22,0,5.36-1.71,5.36-4.05v-.08c0-2.21-1.19-3.46-6.2-4.52-5.53-1.19-8.05-3-8.05-6.87v-.07c0-3.75,3.33-6.51,7.83-6.51a12.46,12.46,0,0,1,8.36,2.94L314,111.59a10.4,10.4,0,0,0-6.87-2.59c-3.1,0-5.08,1.7-5.08,3.84v.1c0,2.25,1.23,3.5,6.43,4.63s7.76,3.1,7.76,6.74v.06c0,4.09-3.4,6.75-8.14,6.75A13.93,13.93,0,0,1,298.45,127.28Z"/><path class="cls-1" d="M320.42,118.9v-.06a12,12,0,0,1,11.68-12.32h.37a12.38,12.38,0,0,1,9.3,3.78l-1.84,2a10.33,10.33,0,0,0-7.5-3.27c-5.28,0-9.24,4.28-9.24,9.77v.07c0,5.51,4,9.84,9.24,9.84,3.26,0,5.41-1.27,7.7-3.44L341.9,127a12.43,12.43,0,0,1-9.53,4.17,11.89,11.89,0,0,1-12-11.81C320.41,119.19,320.41,119,320.42,118.9Z"/><path class="cls-1" d="M346.94,106.93h2.69v10.58H363.4V106.93h2.69v23.82H363.4v-10.7H349.63v10.7h-2.69Z"/><path class="cls-1" d="M373.85,106.93h2.72l8.65,13,8.73-13h2.72v23.82H394V111.49l-8.69,12.72h-.14l-8.68-12.72v19.26h-2.62Z"/><path class="cls-1" d="M405.35,106.93H408v23.82h-2.68Z"/><path class="cls-1" d="M416.72,106.93H425c7.5,0,12.68,5.13,12.68,11.84v.07c0,6.7-5.19,11.91-12.68,11.91h-8.28ZM425,128.27c6,0,9.88-4.09,9.88-9.37v-.06c0-5.28-3.85-9.43-9.88-9.43h-5.59v18.86Z"/><path class="cls-1" d="M448.26,109.41h-8v-2.48H459v2.48h-8v21.34h-2.72Z"/><path class="cls-1" d="M472.31,106.93h19.07v5.79H478.91v4H490.2v5.48H478.91v8.57h-6.6Z"/><path class="cls-1" d="M495.08,120.31V106.93h6.72v13.24c0,3.43,1.74,5.07,4.39,5.07s4.36-1.59,4.36-4.9V106.93h6.71v13.2c0,7.69-4.39,11.06-11.16,11.06S495.08,127.76,495.08,120.31Z"/><path class="cls-1" d="M528.06,112.72H520.9v-5.79h20.91v5.79h-7.14v18h-6.61Z"/><path class="cls-1" d="M545.42,120.31V106.93h6.72v13.24c0,3.43,1.73,5.07,4.39,5.07s4.37-1.59,4.37-4.9V106.93h6.71v13.2c0,7.69-4.4,11.06-11.18,11.06S545.42,127.76,545.42,120.31Z"/><path class="cls-1" d="M571.88,106.93h11.28c3.64,0,6.16.95,7.77,2.59a7.37,7.37,0,0,1,2.11,5.56h0a7.5,7.5,0,0,1-4.91,7.32l5.69,8.31h-7.63l-4.81-7.21h-2.89v7.21h-6.61Zm11,11.44c2.25,0,3.55-1.07,3.55-2.83v-.07c0-1.88-1.36-2.83-3.58-2.83h-4.29v5.73Z"/><path class="cls-1" d="M597.39,106.93H616.6v5.62H604v3.6H615.4v5.2H603.93v3.78h12.86v5.62h-19.4Z"/><path class="cls-1" d="M620,127.21l3.69-4.39a12.23,12.23,0,0,0,7.73,2.86c1.77,0,2.72-.61,2.72-1.63V124c0-1-.78-1.53-4-2.28-5.07-1.16-9-2.59-9-7.5v-.06c0-4.41,3.51-7.62,9.23-7.62a15,15,0,0,1,9.81,3.21l-3.31,4.66a11.93,11.93,0,0,0-6.67-2.35c-1.6,0-2.38.69-2.38,1.53v.07c0,1.07.81,1.57,4.11,2.32,5.49,1.19,8.89,3,8.89,7.42v.06c0,4.87-3.84,7.76-9.64,7.76A16.66,16.66,0,0,1,620,127.21Z"/></g></g><path class="cls-1" d="M251.28,126.56v4h-1v-22h1v11.2a6.63,6.63,0,0,1,6-4.32c3.64,0,6.6,2.9,6.6,7.53v.23c0,4.74-2.93,7.56-6.6,7.56A6.37,6.37,0,0,1,251.28,126.56Zm11.65-3.33V123c0-4.32-2.61-6.71-5.68-6.71s-6,2.42-6,6.71v.22c0,4.24,2.76,6.69,6,6.69S262.93,127.47,262.93,123.23Z"/><path class="cls-1" d="M271.49,129.4l-5.91-13.73h1L272,128.3l5.15-12.63h1l-8.3,20h-1Z"/><path class="cls-2" d="M128.89,21.76h15c10.1,0,18.43,4.39,18.43,15.26v.29c0,11.1-8.4,15.41-18.43,15.41h-8.55V74h-6.42ZM144.3,47.68c7.52,0,11.58-3.65,11.58-10.37V37c0-7.37-4.43-10.14-11.58-10.14h-9v20.8Z"/><path class="cls-2" d="M170.7,17.53h6.19V74H170.7Z"/><path class="cls-2" d="M185.52,63.37c0-8.83,9.43-11.82,19.31-11.82h5.53V48.77c0-6.05-2.36-8.61-8.26-8.61-5.3,0-8.25,2.19-8.84,6.86h-6.12c.81-8.68,7.81-11.9,15.26-11.9s14.08,3,14.08,13.65V74h-6.12V69.14c-2.87,3.58-6.34,5.48-12,5.48C191.19,74.62,185.52,71.18,185.52,63.37Zm24.84-2.77V55.86h-5.31c-7.74,0-13.41,1.89-13.41,7.51,0,3.95,1.91,6.43,7.29,6.43C205.42,69.8,210.36,66.51,210.36,60.6Z"/><path class="cls-2" d="M226.8,23.81a4.06,4.06,0,1,1,4.06,4A4.08,4.08,0,0,1,226.8,23.81Zm1.11,12H234V74h-6.12Z"/><path class="cls-2" d="M245.83,35.78h6.11v6.06c1.77-3.58,6.05-6.72,12.39-6.72,8,0,13.57,4.31,13.57,15.41V74h-6.12V50.09c0-6.72-2.88-9.71-9.07-9.71-5.68,0-10.77,3.58-10.77,10.44V74h-6.11Z"/><path class="cls-2" d="M290.5,64.4V40.89H285V35.78h5.53V27.09h6.12v8.69h9v5.11h-9V63.81c0,3.72,1.7,5.55,4.8,5.55a12.78,12.78,0,0,0,4.72-.8v5.11a15,15,0,0,1-5.24.8C293.9,74.47,290.5,70.38,290.5,64.4Z"/><path class="cls-2" d="M311.74,55.27v-.58c0-11.54,7.45-19.57,18.06-19.57,8.92,0,17.33,5.33,17.33,19v2H318.08c.29,8.68,4.5,13.5,12.39,13.5,6,0,9.43-2.19,10.24-6.64h6.12c-1.32,7.66-7.74,11.68-16.44,11.68C319.48,74.62,311.74,67,311.74,55.27Zm29.12-4.09c-.59-7.88-4.72-11-11.06-11s-10.47,4.24-11.5,11Z"/><path class="cls-2" d="M364.31,54.32,351.4,35.78h7.16L368,49.65l9.37-13.87H384l-12.75,18.1L385.32,74H378.1l-10.4-15.4L357.08,74h-6.56Z"/><path class="cls-2" d="M394.17,64.4V40.89h-5.53V35.78h5.53V27.09h6.12v8.69h9v5.11h-9V63.81c0,3.72,1.69,5.55,4.79,5.55a12.74,12.74,0,0,0,4.72-.8v5.11a14.92,14.92,0,0,1-5.24.8C397.56,74.47,394.17,70.38,394.17,64.4Z"/><path class="cls-2" d="M434.94,48.19v-.58c0-15.26,10.4-26.65,25.51-26.65,10.47,0,19.83,4.82,21.46,16.57h-6.42C474,29.21,468.27,26,460.6,26c-12.09,0-19,8.76-19,21.53v.59c0,12.92,6.48,21.39,18.87,21.39,11.43,0,16.37-7.38,16.59-16.65H461.63V47.61h21.68v3.87c0,15.11-9.37,23.14-22.86,23.14C444.23,74.62,434.94,63.45,434.94,48.19Z"/><path class="cls-2" d="M492.89,35.78H499v6.86c2.44-4.3,5.75-7.3,12.68-7.52v5.7C504,41.18,499,43.59,499,53V74h-6.12Z"/><path class="cls-2" d="M515.9,55.2v-.59c0-11.46,8-19.49,18.94-19.49s18.95,8,18.95,19.42v.59c0,11.53-8,19.49-19,19.49S515.9,66.37,515.9,55.2Zm31.55,0v-.51c0-8.84-4.94-14.53-12.61-14.53s-12.6,5.69-12.6,14.45v.59c0,8.69,4.79,14.38,12.6,14.38S547.45,63.81,547.45,55.2Z"/><path class="cls-2" d="M562.2,59.94V35.78h6.12V59.65c0,6.72,2.87,9.71,8.92,9.71,5.45,0,10.61-3.58,10.61-10.44V35.78H594V74h-6.12V67.9c-1.77,3.58-6,6.72-12.23,6.72C568,74.62,562.2,70.45,562.2,59.94Z"/><path class="cls-2" d="M605.62,35.78h6.12V42.2a15.9,15.9,0,0,1,13-7.08c10.1,0,17.55,7.3,17.55,19.2v.59c0,11.68-6.93,19.71-17.55,19.71-6.34,0-10.84-3.14-13-6.94V87.24h-6.12ZM636,55.2v-.59c0-9.63-5.38-14.45-11.87-14.45-7.15,0-12.61,4.67-12.61,14.45v.59c0,9.78,5.16,14.38,12.68,14.38S636,64.47,636,55.2Z"/><path class="cls-2" d="M78.36,19.49a4.52,4.52,0,1,0-6.4.2A4.52,4.52,0,0,0,78.36,19.49Z"/><path class="cls-2" d="M30.34,30.33a6.94,6.94,0,0,0,0-9.8L22.78,13A6.93,6.93,0,0,0,13,22.78l7.55,7.55A6.94,6.94,0,0,0,30.34,30.33Zm-8.16-1.79a4.5,4.5,0,1,1,6.37,0A4.49,4.49,0,0,1,22.18,28.54Z"/><path class="cls-2" d="M14.91,30.61H15a.86.86,0,0,0,.78-.51.84.84,0,0,0-.18-1L11.2,24.78A9.54,9.54,0,0,1,24.68,11.29l4.49,4.49a.85.85,0,0,0,1.46-.64,14.86,14.86,0,0,0-3.79-9.39,44.3,44.3,0,0,1,37.72,0A15,15,0,0,0,61.4,20.19a.86.86,0,0,0,1.45.34l8.4-8.93a6.06,6.06,0,0,1,4.26-1.92,6.14,6.14,0,0,1,4.36,1.66A6.1,6.1,0,0,1,80.14,20l-8.4,8.93a.86.86,0,0,0,.42,1.43,15.36,15.36,0,0,0,3.65.44A15,15,0,0,0,88.29,7.57,15.12,15.12,0,0,0,76.94.81,14.9,14.9,0,0,0,66.72,3.73l-1.06.88a.66.66,0,0,0-.23-.17,45.84,45.84,0,0,0-39.49.06.75.75,0,0,0-.2.15l-.09-.08a14.93,14.93,0,1,0-10.74,26Z"/><path class="cls-2" d="M61.15,61.15a6.91,6.91,0,0,0,0,9.79L68.7,78.5a6.94,6.94,0,0,0,9.8,0h0a6.94,6.94,0,0,0,0-9.8L71,61.15A6.92,6.92,0,0,0,61.15,61.15Zm8.15,1.78a4.5,4.5,0,1,1-6.37,0A4.5,4.5,0,0,1,69.3,62.93Z"/><path class="cls-2" d="M76.57,60.86a.89.89,0,0,0-.83.51.88.88,0,0,0,.18,1l4.37,4.36A9.54,9.54,0,1,1,66.8,80.18L62.32,75.7a.86.86,0,0,0-1.47.64,14.92,14.92,0,0,0,3.65,9.23l.16.17a44.32,44.32,0,0,1-37.73.05A15,15,0,0,0,30.09,71.3.86.86,0,0,0,28.64,71l-8.4,8.93A6.06,6.06,0,0,1,16,81.81a6.14,6.14,0,0,1-4.36-1.66,6.1,6.1,0,0,1-.27-8.62l8.4-8.93a.86.86,0,0,0,.2-.84.84.84,0,0,0-.62-.59A15,15,0,0,0,3.2,83.92a15.12,15.12,0,0,0,11.35,6.76c.43,0,.85,0,1.26,0A14.89,14.89,0,0,0,25,87.59l.84-.72a.81.81,0,0,0,.24.17,45.84,45.84,0,0,0,39.49,0,.83.83,0,0,0,.21-.16,14.94,14.94,0,1,0,10.82-26Z"/><path class="cls-2" d="M13.13,72a4.52,4.52,0,1,0,6.4-.2A4.53,4.53,0,0,0,13.13,72Z"/><path class="cls-2" d="M88.76,58.67l.21,0a.75.75,0,0,0,.72-.55,44,44,0,0,0,1.8-12.41,44.46,44.46,0,0,0-1.72-12.12.77.77,0,0,0-.94-.52.76.76,0,0,0-.52.93,42,42,0,0,1-.07,23.7A.76.76,0,0,0,88.76,58.67Z"/><path class="cls-2" d="M2.52,58.7l.21,0a.75.75,0,0,0,.52-.94A42,42,0,0,1,3.18,34a.76.76,0,0,0-.52-.93.77.77,0,0,0-.94.52A43.62,43.62,0,0,0,1.8,58.15.75.75,0,0,0,2.52,58.7Z"/><path class="cls-2" d="M50.91,45.79A5.21,5.21,0,1,0,45.7,51,5.21,5.21,0,0,0,50.91,45.79Z"/><path class="cls-2" d="M42.52,37a1.51,1.51,0,1,0-1-2.84,12.3,12.3,0,0,0,0,23.24,1.51,1.51,0,0,0,1-2.85,9.29,9.29,0,0,1,0-17.55Z"/><path class="cls-2" d="M49.48,57.45a1.51,1.51,0,0,0,.51-.08,12.3,12.3,0,0,0,0-23.24A1.51,1.51,0,0,0,49,37a9.29,9.29,0,0,1,0,17.55,1.51,1.51,0,0,0,.51,2.93Z"/></g></g></svg>