<svg xmlns="http://www.w3.org/2000/svg" xmlns:xlink="http://www.w3.org/1999/xlink" viewBox="0 0 1401.15 1280.25"><defs><style>.cls-1{fill:url(#linear-gradient);}.cls-2{fill:url(#linear-gradient-2);}</style><linearGradient id="linear-gradient" y1="797.46" x2="1042.87" y2="797.46" gradientUnits="userSpaceOnUse"><stop offset="0" stop-color="#ff6f61"/><stop offset="1" stop-color="#ef475a"/></linearGradient><linearGradient id="linear-gradient-2" x1="358.29" y1="482.79" x2="1401.15" y2="482.79" xlink:href="#linear-gradient"/></defs><g id="Layer_2" data-name="Layer 2"><g id="Layer_3" data-name="Layer 3"><path class="cls-1" d="M841.36,314.67H201.5C90.39,314.67,0,405.06,0,516.17v562.58c0,111.11,90.39,201.5,201.5,201.5H841.36c111.11,0,201.51-90.39,201.51-201.5V516.17C1042.87,405.06,952.47,314.67,841.36,314.67ZM936,1078.75a94.69,94.69,0,0,1-94.59,94.58H201.5a94.69,94.69,0,0,1-94.58-94.58V516.17a94.68,94.68,0,0,1,94.58-94.58H841.36A94.68,94.68,0,0,1,936,516.17Z"/><path class="cls-2" d="M1199.65,0H559.79c-111.11,0-201.5,90.39-201.5,201.5H465.21a94.69,94.69,0,0,1,94.58-94.58h639.86a94.69,94.69,0,0,1,94.59,94.58V764.08a94.69,94.69,0,0,1-94.59,94.59V965.59c111.11,0,201.5-90.4,201.5-201.51V201.5C1401.15,90.39,1310.76,0,1199.65,0Z"/></g></g></svg>